Coordinates
version=1
nRows=23
nColumns=34
inDegrees=no

Units are S.I. units (second, meters, Newtons, ...)
If the header above contains a line with 'inDegrees', this indicates whether rotational values are in degrees (yes) or radians (no).

endheader
time	pelvis_tilt	pelvis_list	pelvis_rotation	pelvis_tx	pelvis_ty	pelvis_tz	hip_flexion_r	hip_adduction_r	hip_rotation_r	knee_angle_r	ankle_angle_r	subtalar_angle_r	mtp_angle_r	hip_flexion_l	hip_adduction_l	hip_rotation_l	knee_angle_l	ankle_angle_l	subtalar_angle_l	mtp_angle_l	lumbar_extension	lumbar_bending	lumbar_rotation	arm_flex_r	arm_add_r	arm_rot_r	elbow_flex_r	pro_sup_r	arm_flex_l	arm_add_l	arm_rot_l	elbow_flex_l	pro_sup_l
0	0.0303288	0.0618703	0.0492679	-0.231351	0.922308	-0.290132	0.474027	-0.11566	-0.200373	0.0885821	0.26136	0.169255	0	-0.346274	0.0623618	0.0422859	0.197336	0.387701	0.179142	0	-0.109855	-0.0566809	-0.188494	-0.195016	-0.0750889	-0.385612	0.542072	2.09	0.151809	-0.208236	0.00766485	0.92185	2.09
0.01	0.0268843	0.0614668	0.0492751	-0.217823	0.920904	-0.28872	0.48305	-0.115177	-0.207322	0.115251	0.249635	0.163033	0	-0.343427	0.0589778	0.0362057	0.221616	0.376197	0.188453	0	-0.106926	-0.055061	-0.188484	-0.192581	-0.0752063	-0.387856	0.535689	2.09	0.141505	-0.201013	-0.00717686	0.928823	2.09
0.02	0.0255802	0.0567883	0.0492088	-0.203175	0.919743	-0.287082	0.485968	-0.109765	-0.21474	0.13769	0.235747	0.154565	0	-0.344619	0.0497876	0.0241868	0.244036	0.363686	0.204378	0	-0.103547	-0.0488563	-0.18801	-0.192684	-0.0758767	-0.391152	0.530231	2.09	0.128533	-0.192872	-0.0221521	0.93454	2.09
0.03	0.024675	0.0496856	0.0488593	-0.188101	0.91879	-0.285259	0.486991	-0.10131	-0.21951	0.158507	0.216497	0.14231	0	-0.344609	0.0368667	0.00556008	0.269355	0.350421	0.227947	0	-0.0995193	-0.0400124	-0.18695	-0.193676	-0.0768822	-0.394549	0.525515	2.09	0.114549	-0.18432	-0.0367447	0.938015	2.09
0.04	0.0235578	0.0411581	0.0479123	-0.17277	0.918079	-0.283282	0.487284	-0.0907933	-0.221213	0.17831	0.192234	0.128197	0	-0.342323	0.0222218	-0.0136842	0.297798	0.332685	0.249418	0	-0.0945734	-0.0295501	-0.184777	-0.195365	-0.0780536	-0.398493	0.521824	2.09	0.100187	-0.175556	-0.0501224	0.938218	2.09
0.05	0.0219181	0.0316356	0.0462359	-0.157251	0.91763	-0.28117	0.487508	-0.0788334	-0.220871	0.197859	0.165376	0.115008	0	-0.336796	0.00644222	-0.0327964	0.330188	0.30933	0.267061	0	-0.0885303	-0.0179332	-0.181533	-0.197532	-0.0794232	-0.402728	0.519073	2.09	0.0854499	-0.166647	-0.0625391	0.934972	2.09
0.06	0.0198563	0.0218088	0.0436928	-0.141614	0.91747	-0.278961	0.48803	-0.0665562	-0.220607	0.218405	0.140241	0.106888	0	-0.327968	-0.00926068	-0.0493293	0.366422	0.278457	0.276416	0	-0.0817055	-0.00589498	-0.177128	-0.200034	-0.0809697	-0.40711	0.517279	2.09	0.0705765	-0.157717	-0.0739297	0.92825	2.09
0.07	0.0172548	0.0117778	0.0401816	-0.125946	0.917574	-0.276655	0.489114	-0.0540064	-0.219879	0.240295	0.119173	0.10221	0	-0.31482	-0.0255168	-0.0665008	0.407866	0.240946	0.281421	0	-0.0741795	0.00640828	-0.17153	-0.20268	-0.0826863	-0.411477	0.516428	2.09	0.0557382	-0.148805	-0.0846252	0.918309	2.09
0.08	0.0143137	0.00200172	0.0355831	-0.110347	0.917922	-0.274267	0.490763	-0.0417514	-0.219319	0.26406	0.105068	0.101457	0	-0.297322	-0.0418061	-0.0832655	0.454579	0.195907	0.279323	0	-0.0664577	0.0184657	-0.164539	-0.205324	-0.0845208	-0.415666	0.516642	2.09	0.0413409	-0.140059	-0.0945296	0.905403	2.09
0.09	0.0111483	-0.00661644	0.0301713	-0.0948273	0.918392	-0.27176	0.4938	-0.0310776	-0.219964	0.291745	0.100977	0.105412	0	-0.275501	-0.0575115	-0.0988872	0.50652	0.143133	0.26854	0	-0.0586965	0.0290628	-0.156269	-0.208268	-0.0860705	-0.419665	0.518342	2.09	0.0273955	-0.132004	-0.103513	0.89039	2.09
0.1	0.00850111	-0.0172674	0.0237897	-0.0797019	0.919278	-0.269328	0.494016	-0.017991	-0.221458	0.316092	0.102139	0.111097	0	-0.249695	-0.0757793	-0.113705	0.563589	0.0822204	0.246682	0	-0.0525479	0.0424011	-0.146562	-0.210015	-0.0886475	-0.422659	0.520781	2.09	0.0153046	-0.123406	-0.111768	0.87174	2.09
0.11	0.00690683	-0.0281525	0.0175038	-0.0647829	0.920341	-0.266833	0.49213	-0.00472592	-0.224042	0.339965	0.110884	0.118562	0	-0.221476	-0.0951963	-0.125781	0.623982	0.0141016	0.213514	0	-0.0481485	0.055874	-0.136005	-0.211747	-0.0908433	-0.426646	0.52529	2.09	0.0045458	-0.115558	-0.118664	0.851144	2.09
0.12	0.00719447	-0.0428531	0.0113599	-0.0502306	0.921832	-0.264312	0.482651	0.0152592	-0.219561	0.353064	0.117021	0.112906	0	-0.192306	-0.120299	-0.13735	0.686465	-0.0575591	0.174292	0	-0.0469221	0.0735584	-0.125543	-0.211763	-0.0948462	-0.424636	0.529383	2.09	-0.00476083	-0.107611	-0.125646	0.828397	2.09
0.13	0.00410828	-0.0518113	0.00328535	-0.0362082	0.922822	-0.26171	0.481418	0.0286901	-0.21585	0.374551	0.131165	0.113532	0	-0.157096	-0.138488	-0.144431	0.749609	-0.13025	0.124111	0	-0.04309	0.0844594	-0.112605	-0.212061	-0.0976855	-0.423462	0.535795	2.09	-0.0132898	-0.101481	-0.131471	0.805445	2.09
0.14	0.00250636	-0.0621567	-0.00406598	-0.0225829	0.924136	-0.259251	0.474559	0.0441658	-0.212109	0.38837	0.144705	0.113224	0	-0.122192	-0.15794	-0.14727	0.810828	-0.197828	0.0699143	0	-0.0419737	0.0969173	-0.100096	-0.210778	-0.101407	-0.420152	0.542413	2.09	-0.0202013	-0.0955762	-0.137035	0.780453	2.09
0.15	0.00251633	-0.0727466	-0.010148	-0.00927897	0.925745	-0.256956	0.462749	0.0603734	-0.20721	0.39593	0.156849	0.110239	0	-0.0881957	-0.17697	-0.145215	0.869043	-0.253526	0.015962	0	-0.043441	0.109424	-0.0887046	-0.20793	-0.105727	-0.414632	0.548905	2.09	-0.0258906	-0.0902444	-0.142647	0.754009	2.09
0.16	0.00396362	-0.0830351	-0.0146184	0.00369966	0.927664	-0.254894	0.44619	0.0765612	-0.200911	0.397082	0.166918	0.104552	0	-0.0548584	-0.194495	-0.138119	0.923866	-0.292219	-0.035061	0	-0.0471765	0.121347	-0.0788775	-0.203332	-0.110623	-0.406937	0.55489	2.09	-0.0304529	-0.0855036	-0.148515	0.726241	2.09
0.17	0.00446001	-0.0887358	-0.0183369	0.0162894	0.929503	-0.253042	0.432113	0.0868468	-0.195791	0.400616	0.179122	0.1021	0	-0.0192996	-0.205221	-0.126728	0.975401	-0.312159	-0.0831895	0	-0.0503205	0.12779	-0.0700742	-0.197571	-0.115194	-0.397696	0.560781	2.09	-0.0345776	-0.0821757	-0.154692	0.698454	2.09
0.18	0.00588569	-0.0931293	-0.0199594	0.0286013	0.931614	-0.251485	0.414826	0.0950761	-0.191652	0.399741	0.190599	0.100559	0	0.0162893	-0.212991	-0.111587	1.02269	-0.314013	-0.125748	0	-0.0547176	0.132537	-0.0634224	-0.190341	-0.119934	-0.387213	0.566334	2.09	-0.0379691	-0.0796196	-0.161211	0.670069	2.09
0.19	0.00733148	-0.0954272	-0.0194871	0.040673	0.933867	-0.250211	0.396681	0.100136	-0.188981	0.396981	0.201831	0.100028	0	0.052881	-0.216571	-0.093316	1.0651	-0.303743	-0.165295	0	-0.059063	0.134724	-0.0590254	-0.182192	-0.124581	-0.375629	0.57195	2.09	-0.0410721	-0.0780684	-0.167917	0.641721	2.09
0.2	0.00860217	-0.0957166	-0.0172452	0.0525435	0.93624	-0.249172	0.378065	0.102185	-0.18808	0.392694	0.212946	0.101149	0	0.0902126	-0.216142	-0.0733451	1.10186	-0.286187	-0.200447	0	-0.0630317	0.134482	-0.0565904	-0.173425	-0.128949	-0.363606	0.577899	2.09	-0.0441966	-0.0775314	-0.1748	0.614028	2.09
0.21	0.00951628	-0.0942961	-0.0136503	0.0642558	0.938706	-0.248317	0.359197	0.101729	-0.188925	0.386958	0.223776	0.104023	0	0.127938	-0.212095	-0.0529237	1.13238	-0.266409	-0.230818	0	-0.0663506	0.132182	-0.0557481	-0.164309	-0.132954	-0.351618	0.584286	2.09	-0.0476678	-0.077958	-0.181801	0.58755	2.09
0.22	0.00989076	-0.0913771	-0.00911226	0.075851	0.941231	-0.247614	0.34045	0.0986005	-0.193791	0.380387	0.235621	0.112612	0	0.165746	-0.204698	-0.0330464	1.15637	-0.248265	-0.256744	0	-0.0687635	0.128106	-0.056312	-0.15492	-0.136695	-0.339434	0.590825	2.09	-0.0519062	-0.0792242	-0.189135	0.562908	2.09
